<svg width="20px" height="20px" viewBox="0 0 20 20" version="1.1" xmlns="http://www.w3.org/2000/svg" xmlns:xlink="http://www.w3.org/1999/xlink">
    <g stroke="none" stroke-width="1" fill="none" fill-rule="evenodd" transform="translate(-49.000000, -25.000000)">
        <path d="M68.25,27.0624951 L68.25,42.187459 C68.25,42.7603741 68.0494789,43.2473525 67.6484375,43.648393 C67.2473961,44.0494335 66.7604164,44.2499541 66.1875,44.2499541 L62.5351562,44.2499541 L62.5351562,36.6445035 L65.1132812,36.6445035 L65.5,33.7226355 L62.5351562,33.7226355 L62.5351562,31.8749836 C62.5351562,31.4166511 62.6210938,31.072902 62.7929688,30.8437361 C63.0221352,30.5859242 63.4088539,30.4570182 63.953125,30.4570182 L65.5,30.4570182 L65.5,27.8788994 C64.8984375,27.7929621 64.1536461,27.7499934 63.265625,27.7499934 C62.1197914,27.7499934 61.2102867,28.086581 60.5371094,28.7597567 C59.8639321,29.4329324 59.5273438,30.3710809 59.5273438,31.5742031 L59.5273438,33.7226355 L56.90625,33.7226355 L56.90625,36.6445035 L59.5273438,36.6445035 L59.5273438,44.2499541 L51.0625,44.2499541 C50.4895836,44.2499541 50.0026039,44.0494335 49.6015625,43.648393 C49.2005211,43.2473525 49,42.7603741 49,42.187459 L49,27.0624951 C49,26.48958 49.2005211,26.0026016 49.6015625,25.6015611 C50.0026039,25.2005206 50.4895836,25 51.0625,25 L66.1875,25 C66.7604164,25 67.2473961,25.2005206 67.6484375,25.6015611 C68.0494789,26.0026016 68.25,26.48958 68.25,27.0624951 Z" fill="#000"></path>
    </g>
</svg>
