<svg width="20px" height="20px" viewBox="0 0 20 20" version="1.1" xmlns="http://www.w3.org/2000/svg" xmlns:xlink="http://www.w3.org/1999/xlink">
    <g stroke="none" stroke-width="1" fill="none" fill-rule="evenodd" transform="translate(-93.000000, -25.000000)">
        <path d="M110.875,25 C111.247396,25 111.569662,25.1360676 111.841797,25.4082022 C112.113932,25.6803367 112.25,26.0026016 112.25,26.3749967 L112.25,42.8749574 C112.25,43.2473525 112.113932,43.5696174 111.841797,43.841752 C111.569662,44.1138865 111.247396,44.2499541 110.875,44.2499541 L94.375,44.2499541 C94.0026039,44.2499541 93.6803383,44.1138865 93.4082031,43.841752 C93.1360679,43.5696174 93,43.2473525 93,42.8749574 L93,26.3749967 C93,26.0026016 93.1360679,25.6803367 93.4082031,25.4082022 C93.6803383,25.1360676 94.0026039,25 94.375,25 L110.875,25 Z M95.9648367,41.4999607 L98.8437361,41.4999607 L98.8437361,32.3046701 L95.9648367,32.3046701 L95.9648367,41.4999607 Z M97.3828021,31.0585793 C97.8411345,31.0585793 98.2350133,30.8938664 98.5644399,30.5644399 C98.8938664,30.2350133 99.0585793,29.8482955 99.0585793,29.4042864 C99.0585793,28.9602772 98.8938664,28.5735594 98.5644399,28.2441329 C98.2350133,27.9147064 97.8411345,27.7499934 97.3828021,27.7499934 C96.9244696,27.7499934 96.5377518,27.9147064 96.2226486,28.2441329 C95.9075454,28.5735594 95.7499934,28.9602772 95.7499934,29.4042864 C95.7499934,29.8482955 95.9075454,30.2350133 96.2226486,30.5644399 C96.5377518,30.8938664 96.9244696,31.0585793 97.3828021,31.0585793 Z M109.499961,41.4999607 L109.499961,36.4726289 C109.499961,35.0403409 109.29944,33.99477 108.8984,33.3359176 C108.35413,32.5051907 107.423143,32.0898268 106.105438,32.0898268 C105.446585,32.0898268 104.859347,32.2473788 104.343723,32.562482 C103.914036,32.8202939 103.598933,33.1497204 103.398413,33.5507609 L103.355444,33.5507609 L103.355444,32.3046701 L100.605451,32.3046701 L100.605451,41.4999607 L103.441381,41.4999607 L103.441381,36.945284 C103.441381,36.2291397 103.541641,35.6848706 103.742162,35.3124754 C104.02862,34.8254976 104.501275,34.5820084 105.160127,34.5820084 C105.81898,34.5820084 106.248666,34.854143 106.449187,35.3984127 C106.592415,35.7421619 106.66403,36.2864316 106.66403,37.0312213 L106.66403,41.4999607 L109.499961,41.4999607 Z" fill="#000"></path>
    </g>
</svg>
