<svg width="22px" height="18px" viewBox="0 0 22 18" version="1.1" xmlns="http://www.w3.org/2000/svg" xmlns:xlink="http://www.w3.org/1999/xlink">
    <g stroke="none" stroke-width="1" fill="none" fill-rule="evenodd" transform="translate(-137.000000, -26.000000)">
        <path d="M156.722656,30.4687393 C156.751302,30.5833226 156.765625,30.7695199 156.765625,31.0273318 C156.765625,33.0898268 156.264323,35.0807073 155.261719,36.9999738 C154.230469,39.0338229 152.783854,40.6523088 150.921875,41.8554309 C148.888021,43.2017817 146.553385,43.8749574 143.917969,43.8749574 C141.397135,43.8749574 139.091146,43.2017817 137,41.8554309 C137.315104,41.8840769 137.673177,41.8983996 138.074219,41.8983996 C140.165365,41.8983996 142.041666,41.2538699 143.703125,39.9648105 C142.700521,39.9648105 141.819662,39.6711916 141.060547,39.0839532 C140.301432,38.4967148 139.778646,37.7590868 139.492188,36.8710678 C139.778646,36.8997138 140.050781,36.9140365 140.308594,36.9140365 C140.709635,36.9140365 141.110677,36.8710678 141.511719,36.7851305 C140.480469,36.5559646 139.621094,36.0260175 138.933594,35.1952906 C138.246094,34.3645636 137.902344,33.4192534 137.902344,32.3593598 L137.902344,32.2734225 C138.532552,32.6458177 139.205729,32.8463376 139.921875,32.8749836 C139.320312,32.4452971 138.833334,31.9010274 138.460938,31.242175 C138.088541,30.5833226 137.902344,29.8600166 137.902344,29.0722583 C137.902344,28.2845 138.117188,27.5325486 138.546875,26.8164043 C139.664062,28.220047 141.031901,29.3372318 142.650391,30.1679588 C144.26888,30.9986858 145.994791,31.4570182 147.828125,31.5429555 C147.770834,31.1992064 147.742188,30.8554572 147.742188,30.511708 C147.742188,29.7096264 147.942709,28.957675 148.34375,28.255854 C148.744791,27.554033 149.289062,27.0026016 149.976562,26.6015611 C150.664062,26.2005206 151.408854,26 152.210938,26 C152.869791,26 153.478516,26.1289059 154.037109,26.3867178 C154.595703,26.6445297 155.089844,26.9882789 155.519531,27.4179654 C156.550781,27.2174448 157.510416,26.859373 158.398438,26.3437492 C158.054688,27.4036427 157.395834,28.2343697 156.421875,28.8359307 C157.28125,28.7213475 158.140625,28.4778589 159,28.1054637 C158.369791,29.022128 157.610677,29.809887 156.722656,30.4687393 Z" fill="#FFFFFF"></path>
    </g>
</svg>
