<?xml version="1.0" encoding="UTF-8"?>
<svg width="29px" height="28px" viewBox="0 0 29 28" version="1.1" xmlns="http://www.w3.org/2000/svg" xmlns:xlink="http://www.w3.org/1999/xlink">
    <!-- Generator: Sketch 48.1 (47250) - http://www.bohemiancoding.com/sketch -->
    <title>recycle-special - deloitte-special_font-v2</title>
    <desc>Created with Sketch.</desc>
    <defs></defs>
    <g id="page" stroke="none" stroke-width="1" fill="none" fill-rule="evenodd" transform="translate(-758.000000, -1034.000000)">
        <path d="M774.516452,1042.0353 L776.140121,1042.36003 L772.707222,1036.42204 L772.243316,1036.42204 L767.928997,1043.89092 C767.805288,1044.10741 767.611996,1044.24658 767.349115,1044.30843 C767.086234,1044.37029 766.831089,1044.33936 766.583671,1044.21565 C766.459963,1044.12287 766.359451,1044.03009 766.282133,1043.93731 C766.204815,1043.84453 766.150693,1043.72082 766.119766,1043.56618 C766.088839,1043.44248 766.081107,1043.31877 766.096571,1043.19506 C766.112034,1043.07135 766.150693,1042.94764 766.212547,1042.82394 L770.8516,1034.79837 C770.944382,1034.67467 771.068089,1034.57415 771.222725,1034.49684 C771.377361,1034.41952 771.531994,1034.38086 771.68663,1034.38086 L773.263908,1034.47364 C773.449471,1034.44271 773.619568,1034.46591 773.774204,1034.54323 C773.92884,1034.62054 774.052547,1034.73652 774.145328,1034.89116 L777.671009,1040.96831 L777.856571,1039.71577 C777.887498,1039.53021 777.957083,1039.37557 778.065328,1039.25187 C778.173573,1039.12816 778.320475,1039.03538 778.506038,1038.97352 C778.660674,1038.91167 778.830771,1038.8962 779.016334,1038.92713 C779.201897,1038.95806 779.356531,1039.01991 779.480239,1039.11269 C779.634875,1039.2364 779.743119,1039.3833 779.804973,1039.5534 C779.866828,1039.7235 779.882291,1039.90133 779.851364,1040.08689 L779.155506,1043.89092 C779.124579,1044.13834 779.008603,1044.33936 778.807577,1044.494 C778.60655,1044.64863 778.397795,1044.72595 778.181305,1044.72595 L777.995742,1044.72595 L774.145328,1044.03009 C773.959765,1043.99916 773.805132,1043.92958 773.681423,1043.82133 C773.557714,1043.71309 773.464934,1043.56619 773.40308,1043.38062 C773.341225,1043.22599 773.325762,1043.05589 773.356689,1042.87033 C773.387616,1042.68476 773.44947,1042.53013 773.542251,1042.40642 C773.66596,1042.25179 773.812862,1042.14354 773.982961,1042.08169 C774.153061,1042.01983 774.330889,1042.00437 774.516452,1042.0353 Z M769.552665,1056.2308 C769.800083,1056.26173 770.001107,1056.36997 770.155742,1056.55553 C770.310378,1056.7411 770.387695,1056.95758 770.387695,1057.205 C770.387695,1057.45242 770.310378,1057.66891 770.155742,1057.85447 C770.001107,1058.04003 769.800083,1058.14828 769.552665,1058.1792 L760.32095,1058.1792 C760.135386,1058.1792 759.96529,1058.14054 759.810654,1058.06323 C759.656018,1057.98591 759.532311,1057.86993 759.439529,1057.7153 L758.65089,1056.41636 C758.558109,1056.26173 758.511719,1056.09936 758.511719,1055.92926 C758.511719,1055.75916 758.558109,1055.5968 758.65089,1055.44216 L762.08379,1049.55056 L761.20237,1049.8753 C761.016807,1049.96808 760.831246,1049.99901 760.645683,1049.96808 C760.46012,1049.93715 760.305487,1049.85983 760.181778,1049.73613 C760.027142,1049.61242 759.918899,1049.46552 759.857044,1049.29542 C759.79519,1049.12532 759.779726,1048.94749 759.810654,1048.76192 C759.872508,1048.60729 759.965288,1048.46039 760.088997,1048.32121 C760.212706,1048.18204 760.351876,1048.08153 760.506512,1048.01968 L764.171364,1046.72074 C764.295072,1046.68981 764.426511,1046.67435 764.565683,1046.67435 C764.704856,1046.67435 764.836294,1046.70528 764.960003,1046.76713 C765.083711,1046.82899 765.184223,1046.9063 765.261541,1046.99908 C765.338859,1047.09187 765.408444,1047.20011 765.470299,1047.32382 L766.769234,1050.98867 C766.800161,1051.11238 766.815624,1051.24382 766.815624,1051.38299 C766.815624,1051.52216 766.784697,1051.6536 766.722843,1051.77731 C766.660989,1051.90102 766.583672,1052.00153 766.49089,1052.07885 C766.398109,1052.15617 766.289865,1052.22575 766.166157,1052.2876 C766.104302,1052.2876 766.042449,1052.29534 765.980594,1052.3108 C765.91874,1052.32626 765.856887,1052.334 765.795032,1052.334 C765.578542,1052.334 765.38525,1052.27214 765.215151,1052.14843 C765.045051,1052.02472 764.929076,1051.85463 764.867222,1051.63814 L764.217754,1049.82891 L760.645683,1055.90607 L760.877636,1056.2308 L769.552665,1056.2308 Z M786.392429,1055.44216 C786.48521,1055.5968 786.523869,1055.76689 786.508405,1055.95246 C786.492942,1056.13802 786.43882,1056.30812 786.346038,1056.46275 L785.557399,1057.7153 C785.464618,1057.86993 785.348642,1057.99364 785.20947,1058.08642 C785.070298,1058.1792 784.907933,1058.22559 784.72237,1058.22559 L776.140121,1058.22559 L777.671009,1059.71009 C777.794717,1059.8338 777.887497,1059.9807 777.949352,1060.1508 C778.011206,1060.3209 778.02667,1060.49873 777.995742,1060.68429 C777.933888,1060.86985 777.841108,1061.02449 777.717399,1061.1482 C777.59369,1061.27191 777.439057,1061.36469 777.253494,1061.42654 C777.067931,1061.45747 776.890102,1061.442 776.720003,1061.38015 C776.549903,1061.31829 776.403001,1061.22551 776.279293,1061.10181 L773.495861,1058.31837 C773.310298,1058.13281 773.217518,1057.90859 773.217518,1057.64571 C773.217518,1057.38283 773.310298,1057.14315 773.495861,1056.92666 L776.232902,1054.18962 C776.356611,1054.03498 776.503513,1053.93447 776.673612,1053.88808 C776.843712,1053.84169 777.02154,1053.83396 777.207103,1053.86488 C777.392666,1053.92674 777.555032,1054.01952 777.694204,1054.14323 C777.833376,1054.26693 777.918425,1054.42157 777.949352,1054.60713 C777.980279,1054.79269 777.972547,1054.97052 777.926157,1055.14062 C777.879766,1055.31072 777.779254,1055.45762 777.624618,1055.58133 L776.975151,1056.2308 L784.165683,1056.2308 L784.397636,1055.90607 L780.036926,1048.52997 C779.944144,1048.37534 779.897754,1048.20524 779.897754,1048.01968 C779.897754,1047.83411 779.944144,1047.66402 780.036926,1047.50938 C780.09878,1047.35474 780.214755,1047.23104 780.384855,1047.13826 C780.554954,1047.04547 780.71732,1046.99908 780.871955,1046.99908 C781.057518,1046.99908 781.227615,1047.04547 781.382251,1047.13826 C781.536887,1047.23104 781.660594,1047.35474 781.753376,1047.50938 L786.392429,1055.44216 Z" id="recycle-special---deloitte-special_font-v2" fill="#3F51B5"></path>
    </g>
</svg>