<?xml version="1.0" encoding="UTF-8"?>
<svg width="29px" height="29px" viewBox="0 0 29 29" version="1.1" xmlns="http://www.w3.org/2000/svg" xmlns:xlink="http://www.w3.org/1999/xlink">
    <!-- Generator: Sketch 48.1 (47250) - http://www.bohemiancoding.com/sketch -->
    <title>alarm-clock-special - deloitte-special_font-v2</title>
    <desc>Created with Sketch.</desc>
    <defs></defs>
    <g id="page" stroke="none" stroke-width="1" fill="none" fill-rule="evenodd" transform="translate(-759.000000, -1034.000000)">
        <path d="M785.653577,1048.87598 C785.653577,1050.56009 785.28516,1052.16162 784.548314,1053.68063 C783.811468,1055.19963 782.758847,1056.52048 781.390419,1057.64322 L783.285156,1061.1105 C783.355332,1061.27561 783.390419,1061.45722 783.390419,1061.65535 C783.390419,1061.85349 783.337788,1062.0351 783.232525,1062.20021 C783.127261,1062.36532 782.97814,1062.48915 782.785156,1062.57171 C782.592173,1062.65426 782.39042,1062.67903 782.179893,1062.646 C781.969366,1062.646 781.785157,1062.58822 781.627262,1062.47264 C781.469366,1062.35706 781.337788,1062.21672 781.232525,1062.05161 L779.548314,1058.88154 C777.61848,1059.97126 775.530782,1060.51611 773.285156,1060.51611 C771.039531,1060.51611 768.934289,1059.97126 766.969367,1058.88154 L765.285156,1062.05161 C765.144805,1062.31579 764.93428,1062.48915 764.653577,1062.57171 C764.372874,1062.65426 764.092175,1062.62949 763.811472,1062.49741 C763.530769,1062.36532 763.34656,1062.16719 763.25884,1061.90302 C763.171121,1061.63884 763.179893,1061.37467 763.285156,1061.1105 L765.127262,1057.64322 C764.074625,1056.75164 763.214984,1055.72797 762.548314,1054.57221 C761.846556,1053.44947 761.372877,1052.26896 761.127262,1051.03064 C760.881646,1049.79232 760.864103,1048.52926 761.07463,1047.2414 C761.250069,1045.95355 761.671118,1044.71525 762.337788,1043.52647 C763.004458,1042.33768 763.829011,1041.29751 764.811472,1040.40592 C765.829021,1039.51433 766.951817,1038.80438 768.179893,1038.27603 C769.407969,1037.74768 770.706202,1037.41746 772.07463,1037.28538 C773.478146,1037.15329 774.864097,1037.25235 776.232525,1037.58257 C777.600953,1037.91279 778.864098,1038.42462 780.021998,1039.11808 C781.179899,1039.84456 782.171117,1040.71137 782.995683,1041.71853 C783.820248,1042.7257 784.478136,1043.84017 784.969367,1045.06198 C785.425509,1046.28378 785.653577,1047.5551 785.653577,1048.87598 Z M763.179893,1048.87598 C763.179893,1051.51772 764.162339,1053.76317 766.127262,1055.61239 C768.092184,1057.46161 770.478125,1058.38621 773.285156,1058.38621 C776.092188,1058.38621 778.478129,1057.46161 780.443051,1055.61239 C782.407973,1053.76317 783.390419,1051.51772 783.390419,1048.87598 C783.390419,1046.26725 782.407973,1044.03006 780.443051,1042.16433 C778.478129,1040.29859 776.092188,1039.36574 773.285156,1039.36574 C770.478125,1039.36574 768.092184,1040.29859 766.127262,1042.16433 C764.162339,1044.03006 763.179893,1046.26725 763.179893,1048.87598 Z M776.337788,1047.09281 C776.548315,1047.32396 776.653577,1047.57988 776.653577,1047.86056 C776.653577,1048.14125 776.548315,1048.38065 776.337788,1048.57878 L774.07463,1050.65915 C773.864103,1050.85728 773.609719,1050.95634 773.311472,1050.95634 C773.013225,1050.95634 772.758842,1050.85728 772.548314,1050.65915 L768.021998,1046.49842 C767.811471,1046.30029 767.706209,1046.05263 767.706209,1045.75543 C767.706209,1045.45823 767.811471,1045.21057 768.021998,1045.01244 C768.232526,1044.78129 768.495681,1044.66572 768.811472,1044.66572 C769.127263,1044.66572 769.390418,1044.76478 769.600946,1044.96291 L773.285156,1048.38065 L774.75884,1047.09281 C774.864104,1046.99374 774.98691,1046.91944 775.127262,1046.86991 C775.267613,1046.82038 775.407963,1046.79561 775.548314,1046.79561 C775.688666,1046.79561 775.829015,1046.82038 775.969367,1046.86991 C776.109718,1046.91944 776.232524,1046.99374 776.337788,1047.09281 Z M760.969367,1042.53582 C760.829015,1042.53582 760.688666,1042.51105 760.548314,1042.46152 C760.407963,1042.41199 760.285157,1042.33769 760.179893,1042.23862 C759.89919,1041.97445 759.679894,1041.66075 759.521998,1041.29751 C759.364103,1040.93427 759.285156,1040.57103 759.285156,1040.20779 C759.285156,1039.81153 759.364103,1039.43179 759.521998,1039.06855 C759.679894,1038.70531 759.89919,1038.3916 760.179893,1038.12743 L762.969367,1035.50221 C763.25007,1035.23803 763.5834,1035.03165 763.969367,1034.88305 C764.355334,1034.73445 764.758838,1034.66016 765.179893,1034.66016 C765.56586,1034.66016 765.951821,1034.73445 766.337788,1034.88305 C766.723755,1035.03165 767.057085,1035.23803 767.337788,1035.50221 C767.513227,1035.6343 767.627261,1035.7994 767.679893,1035.99753 C767.732525,1036.19566 767.741297,1036.37728 767.706209,1036.54239 C767.671121,1036.74052 767.574631,1036.91388 767.416735,1037.06248 C767.25884,1037.21108 767.074631,1037.30189 766.864104,1037.33491 C766.653576,1037.40095 766.451824,1037.40095 766.25884,1037.33491 C766.065857,1037.26887 765.899192,1037.15329 765.75884,1036.98818 C765.583401,1036.8561 765.381649,1036.79005 765.153577,1036.79005 C764.925506,1036.79005 764.723754,1036.8561 764.548314,1036.98818 L761.811472,1039.6134 C761.636033,1039.77851 761.548314,1039.96839 761.548314,1040.18303 C761.548314,1040.39767 761.636033,1040.58754 761.811472,1040.75265 C761.951824,1040.88474 762.048314,1041.0581 762.100946,1041.27274 C762.153578,1041.48738 762.127262,1041.69377 762.021998,1041.8919 C761.951823,1042.09003 761.820245,1042.24688 761.627262,1042.36246 C761.434278,1042.47803 761.214982,1042.53582 760.969367,1042.53582 Z M787.285156,1040.20779 C787.285156,1040.57103 787.20621,1040.93427 787.048314,1041.29751 C786.890419,1041.66075 786.671123,1041.97445 786.390419,1042.23862 C786.250068,1042.37071 786.074631,1042.46978 785.864104,1042.53582 C785.653576,1042.60186 785.460596,1042.61837 785.285156,1042.58535 C785.074629,1042.51931 784.89042,1042.42024 784.732525,1042.28816 C784.574629,1042.15607 784.478139,1041.99096 784.443051,1041.79283 C784.372875,1041.5947 784.372875,1041.40483 784.443051,1041.22321 C784.513227,1041.04159 784.636033,1040.88474 784.811472,1040.75265 C784.951824,1040.58754 785.021998,1040.39767 785.021998,1040.18303 C785.021998,1039.96839 784.951824,1039.77851 784.811472,1039.6134 L782.021998,1036.98818 C781.846559,1036.8561 781.644807,1036.79005 781.416735,1036.79005 C781.188664,1036.79005 780.986912,1036.8561 780.811472,1036.98818 C780.67112,1037.15329 780.504455,1037.26887 780.311472,1037.33491 C780.118489,1037.40095 779.916736,1037.40095 779.706209,1037.33491 C779.495682,1037.30189 779.320245,1037.21108 779.179893,1037.06248 C779.039542,1036.91388 778.934279,1036.74052 778.864104,1036.54239 C778.829016,1036.37728 778.837788,1036.19566 778.890419,1035.99753 C778.943051,1035.7994 779.057085,1035.6343 779.232525,1035.50221 C779.513228,1035.23803 779.846558,1035.03165 780.232525,1034.88305 C780.618492,1034.73445 781.021996,1034.66016 781.443051,1034.66016 C781.829018,1034.66016 782.214979,1034.73445 782.600946,1034.88305 C782.986913,1035.03165 783.320243,1035.23803 783.600946,1035.50221 L786.390419,1038.12743 C786.671123,1038.3916 786.890419,1038.70531 787.048314,1039.06855 C787.20621,1039.43179 787.285156,1039.81153 787.285156,1040.20779 Z" id="alarm-clock-special---deloitte-special_font-v2" fill="#3F51B5"></path>
    </g>
</svg>