<?xml version="1.0" encoding="UTF-8"?>
<svg width="28px" height="28px" viewBox="0 0 28 28" version="1.1" xmlns="http://www.w3.org/2000/svg" xmlns:xlink="http://www.w3.org/1999/xlink">
    <!-- Generator: Sketch 48.1 (47250) - http://www.bohemiancoding.com/sketch -->
    <title>podcast-special - deloitte-special_font-v2</title>
    <desc>Created with Sketch.</desc>
    <defs></defs>
    <g id="page" stroke="none" stroke-width="1" fill="none" fill-rule="evenodd" transform="translate(-763.000000, -1015.000000)">
        <path d="M779.800039,1025.63005 C779.800039,1026.41411 779.530446,1027.09262 778.991252,1027.66559 C778.452058,1028.23856 777.789004,1028.52504 777.002073,1028.52504 C776.215141,1028.52504 775.552088,1028.23856 775.012893,1027.66559 C774.473699,1027.09262 774.204106,1026.41411 774.204106,1025.63005 C774.204106,1024.81583 774.473699,1024.12978 775.012893,1023.57189 C775.552088,1023.014 776.215141,1022.73506 777.002073,1022.73506 C777.789004,1022.73506 778.452058,1023.014 778.991252,1023.57189 C779.530446,1024.12978 779.800039,1024.81583 779.800039,1025.63005 Z M776.08399,1025.63005 C776.08399,1025.90146 776.171425,1026.12762 776.346299,1026.30856 C776.521173,1026.4895 776.739762,1026.57997 777.002073,1026.57997 C777.264383,1026.57997 777.482972,1026.4895 777.657846,1026.30856 C777.83272,1026.12762 777.920155,1025.90146 777.920155,1025.63005 C777.920155,1025.35864 777.83272,1025.12493 777.657846,1024.92892 C777.482972,1024.7329 777.264383,1024.63489 777.002073,1024.63489 C776.739762,1024.63489 776.521173,1024.7329 776.346299,1024.92892 C776.171425,1025.12493 776.08399,1025.35864 776.08399,1025.63005 Z M777.002073,1015 C778.430208,1015 779.800032,1015.21109 781.111585,1015.63328 C782.452284,1016.05547 783.683669,1016.65859 784.805775,1017.44265 C785.927882,1018.22671 786.940677,1019.17662 787.844192,1020.29241 C788.71856,1021.40819 789.418045,1022.64458 789.942666,1024.00162 C790.496433,1025.35865 790.831603,1026.7609 790.948185,1028.2084 C791.064768,1029.62575 790.984619,1031.028 790.707735,1032.41519 C790.430852,1033.80238 789.957242,1035.12923 789.286893,1036.3958 C788.645689,1037.66236 787.815051,1038.80829 786.794954,1039.8336 C786.62008,1040.01454 786.401492,1040.10501 786.139181,1040.10501 C785.87687,1040.10501 785.658281,1039.99946 785.483408,1039.78837 C785.308534,1039.60743 785.221098,1039.38126 785.221098,1039.10985 C785.221098,1038.83845 785.308534,1038.61228 785.483408,1038.43134 C786.678378,1037.22509 787.581879,1035.853 788.193937,1034.31502 C788.805995,1032.77705 789.119306,1031.20895 789.133879,1029.61066 C789.148452,1028.01238 788.864286,1026.42919 788.281374,1024.86107 C787.698461,1023.32309 786.824106,1021.93592 785.65828,1020.69952 C784.492455,1019.46311 783.166349,1018.52827 781.679922,1017.89499 C780.193495,1017.26171 778.677945,1016.93753 777.133227,1016.92246 C775.588509,1016.90738 774.058387,1017.2014 772.542814,1017.80452 C771.056387,1018.40765 769.715708,1019.31233 768.520738,1020.51858 C767.325767,1021.72483 766.422266,1023.09692 765.810208,1024.63489 C765.19815,1026.17287 764.884839,1027.74097 764.870266,1029.33926 C764.855693,1030.93754 765.139859,1032.52072 765.722771,1034.08885 C766.305684,1035.62683 767.18004,1037.01399 768.345865,1038.2504 C768.462447,1038.37103 768.542596,1038.51427 768.586315,1038.68013 C768.630033,1038.84599 768.622747,1039.01939 768.564456,1039.20032 C768.53531,1039.3511 768.455161,1039.48681 768.324006,1039.60743 C768.19285,1039.72806 768.054411,1039.81852 767.908682,1039.87884 C767.733809,1039.90899 767.566224,1039.90145 767.405923,1039.85622 C767.245622,1039.81099 767.107182,1039.72806 766.9906,1039.60743 C765.999648,1038.55196 765.198156,1037.40604 764.586098,1036.16963 C763.944894,1034.90306 763.50043,1033.58374 763.252692,1032.21163 C763.004954,1030.83952 762.939377,1029.44481 763.05596,1028.02746 C763.201688,1026.61012 763.55143,1025.22295 764.105197,1023.86591 C764.658964,1022.50888 765.373021,1021.28757 766.24739,1020.20194 C767.121759,1019.11631 768.119982,1018.18902 769.242088,1017.42003 C770.364195,1016.65105 771.595579,1016.05547 772.936278,1015.63328 C774.247831,1015.21109 775.603082,1015 777.002073,1015 Z M778.881956,1029.47496 C779.377432,1029.50512 779.800037,1029.70113 780.149785,1030.063 C780.499532,1030.42488 780.688976,1030.87722 780.718121,1031.42003 L780.718121,1034.31502 C780.718121,1034.52612 780.6234,1035.12924 780.433953,1036.12439 C780.244506,1037.11955 780.076922,1037.93376 779.931193,1038.56704 C779.494009,1040.55736 779.158839,1041.79375 778.925674,1042.27625 C778.692509,1042.75875 778.35734,1043 777.920155,1043 L776.08399,1043 C775.646806,1043 775.311636,1042.75875 775.078471,1042.27625 C774.845306,1041.79375 774.510136,1040.55736 774.072952,1038.56704 C773.927224,1037.93376 773.759639,1037.11955 773.570192,1036.12439 C773.380746,1035.12924 773.286024,1034.52612 773.286024,1034.31502 L773.286024,1031.42003 C773.315169,1030.87722 773.504613,1030.42488 773.854361,1030.063 C774.204108,1029.70113 774.626713,1029.50512 775.122189,1029.47496 L778.881956,1029.47496 Z M777.395537,1041.05493 C777.686993,1039.93914 777.956586,1038.81584 778.204324,1037.68498 C778.452061,1036.55411 778.677937,1035.43081 778.881956,1034.31502 L778.881956,1031.42003 L775.122189,1031.42003 C775.151335,1031.42003 775.158621,1031.42757 775.144048,1031.44265 L775.122189,1031.46527 L775.122189,1034.31502 C775.326208,1035.43081 775.552084,1036.55411 775.799821,1037.68498 C776.047559,1038.81584 776.317152,1039.93914 776.608609,1041.05493 L777.395537,1041.05493 Z M777.002073,1018.84491 C779.100558,1018.84491 781.009568,1019.44803 782.72916,1020.65428 C784.448752,1021.86053 785.701995,1023.45879 786.488927,1025.44911 C787.275859,1027.46958 787.458016,1029.53526 787.035404,1031.6462 C786.612793,1033.75715 785.658288,1035.5665 784.171861,1037.07431 C783.996987,1037.25525 783.778398,1037.34572 783.516088,1037.34572 C783.253777,1037.34572 783.035188,1037.24017 782.860314,1037.02908 C782.685441,1036.84814 782.598005,1036.62197 782.598005,1036.35057 C782.598005,1036.07916 782.685441,1035.85299 782.860314,1035.67205 C784.521615,1034.01345 785.366826,1031.97793 785.395971,1029.56543 C785.425117,1027.15292 784.623624,1025.10232 782.991469,1023.41357 C781.359314,1021.69466 779.384727,1020.82014 777.06765,1020.78998 C774.750573,1020.75983 772.775986,1021.58911 771.143831,1023.27787 C769.48253,1024.96662 768.63732,1027.00968 768.608174,1029.40711 C768.579028,1031.80454 769.380521,1033.8476 771.012676,1035.53635 C771.18755,1035.74744 771.274986,1035.98115 771.274986,1036.23748 C771.274986,1036.49381 771.18755,1036.72752 771.012676,1036.93861 C770.808657,1037.11955 770.582782,1037.21002 770.335044,1037.21002 C770.087306,1037.21002 769.861431,1037.10447 769.657411,1036.89338 C768.229276,1035.38556 767.318488,1033.57621 766.925022,1031.46527 C766.531557,1029.35432 766.742859,1027.3188 767.558937,1025.35864 C768.345869,1023.39848 769.599112,1021.82284 771.318704,1020.63166 C773.038296,1019.44049 774.932733,1018.84491 777.002073,1018.84491 Z" id="podcast-special---deloitte-special_font-v2" fill="#3F51B5"></path>
    </g>
</svg>