<?xml version="1.0" encoding="UTF-8"?>
<svg width="29px" height="26px" viewBox="0 0 29 26" version="1.1" xmlns="http://www.w3.org/2000/svg" xmlns:xlink="http://www.w3.org/1999/xlink">
    <!-- Generator: Sketch 48.1 (47250) - http://www.bohemiancoding.com/sketch -->
    <title>satchel-special - deloitte-special_font-v2</title>
    <desc>Created with Sketch.</desc>
    <defs></defs>
    <g id="page" stroke="none" stroke-width="1" fill="none" fill-rule="evenodd" transform="translate(-758.000000, -1033.000000)">
        <path d="M785.20625,1037.71367 C785.468751,1037.71367 785.687499,1037.80117 785.8625,1037.97617 C786.037501,1038.15117 786.125,1038.36992 786.125,1038.63242 L786.125,1047.95117 C786.125,1048.21367 786.037501,1048.43971 785.8625,1048.6293 C785.687499,1048.81888 785.468751,1048.91367 785.20625,1048.91367 L784.24375,1048.91367 L784.24375,1057.31367 C784.24375,1057.57617 784.156251,1057.79492 783.98125,1057.96992 C783.806249,1058.14492 783.587501,1058.23242 783.325,1058.23242 L760.925,1058.23242 C760.662499,1058.23242 760.443751,1058.14492 760.26875,1057.96992 C760.093749,1057.79492 760.00625,1057.57617 760.00625,1057.31367 L760.00625,1048.91367 L759.04375,1048.91367 C758.781249,1048.91367 758.562501,1048.81888 758.3875,1048.6293 C758.212499,1048.43971 758.125,1048.21367 758.125,1047.95117 L758.125,1038.63242 C758.125,1038.36992 758.212499,1038.15117 758.3875,1037.97617 C758.562501,1037.80117 758.781249,1037.71367 759.04375,1037.71367 L767.44375,1037.71367 L767.44375,1034.91367 C767.44375,1034.65117 767.538541,1034.42513 767.728125,1034.23555 C767.917709,1034.04596 768.143749,1033.95117 768.40625,1033.95117 L775.84375,1033.95117 C776.106251,1033.95117 776.332291,1034.04596 776.521875,1034.23555 C776.711459,1034.42513 776.80625,1034.65117 776.80625,1034.91367 L776.80625,1037.71367 L785.20625,1037.71367 Z M769.325,1035.83242 L769.325,1037.71367 L774.925,1037.71367 L774.925,1035.83242 L769.325,1035.83242 Z M782.40625,1056.35117 L782.40625,1048.91367 L778.64375,1048.91367 L778.64375,1049.83242 C778.64375,1050.09492 778.556251,1050.31367 778.38125,1050.48867 C778.206249,1050.66367 777.987501,1050.75117 777.725,1050.75117 C777.462499,1050.75117 777.243751,1050.66367 777.06875,1050.48867 C776.893749,1050.31367 776.80625,1050.09492 776.80625,1049.83242 L776.80625,1048.91367 L767.44375,1048.91367 L767.44375,1049.83242 C767.44375,1050.09492 767.356251,1050.31367 767.18125,1050.48867 C767.006249,1050.66367 766.787501,1050.75117 766.525,1050.75117 C766.262499,1050.75117 766.043751,1050.66367 765.86875,1050.48867 C765.693749,1050.31367 765.60625,1050.09492 765.60625,1049.83242 L765.60625,1048.91367 L761.84375,1048.91367 L761.84375,1056.35117 L782.40625,1056.35117 Z M784.24375,1047.03242 L784.24375,1039.55117 L760.00625,1039.55117 L760.00625,1047.03242 L765.60625,1047.03242 L765.60625,1046.11367 C765.60625,1045.85117 765.693749,1045.62513 765.86875,1045.43555 C766.043751,1045.24596 766.262499,1045.15117 766.525,1045.15117 C766.787501,1045.15117 767.006249,1045.24596 767.18125,1045.43555 C767.356251,1045.62513 767.44375,1045.85117 767.44375,1046.11367 L767.44375,1047.03242 L776.80625,1047.03242 L776.80625,1046.11367 C776.80625,1045.85117 776.893749,1045.62513 777.06875,1045.43555 C777.243751,1045.24596 777.462499,1045.15117 777.725,1045.15117 C777.987501,1045.15117 778.206249,1045.24596 778.38125,1045.43555 C778.556251,1045.62513 778.64375,1045.85117 778.64375,1046.11367 L778.64375,1047.03242 L784.24375,1047.03242 Z" id="satchel-special---deloitte-special_font-v2" fill="#3F51B5"></path>
    </g>
</svg>