<svg width="94px" height="22px" viewBox="0 0 94 22" version="1.1" xmlns="http://www.w3.org/2000/svg" xmlns:xlink="http://www.w3.org/1999/xlink">
    <g id="home" stroke="none" stroke-width="1" fill="none" fill-rule="evenodd" transform="translate(-49.000000, -40.000000)">
        <g id="full" transform="translate(49.000000, 40.000000)" fill="#FFFFFF">
            <g id="Group-3">
                <path d="M6.2866242,2.4322949 L2.69426752,2.4322949 L2.69426752,6.32401465 L0,6.32401465 L0,9.91637134 L2.69426752,9.91637134 L2.69426752,16.1314478 C2.69426752,18.1419701 3.27563057,19.5376006 4.33956688,20.3180401 C5.40320382,21.0984796 7.18471338,21.3427599 9.87898089,21.0499828 L9.87898089,17.6246707 C8.98089172,17.6638873 8.48364968,17.6686771 7.99598726,17.6390401 C7.50802548,17.6100019 7.02874522,17.4782822 6.77518471,17.2438809 C6.5216242,17.009779 6.2866242,16.6394669 6.2866242,16.1314478 L6.2866242,9.91637134 L9.87898089,9.91637134 L9.87898089,6.32401465 L6.2866242,6.32401465 L6.2866242,2.4322949 Z" id="Fill-1"></path>
                <path d="M16.1656051,8.9293414 L16.1656051,6.32398471 L12.2738854,6.32398471 L12.2738854,20.9927745 L16.1656051,20.9927745 L16.1656051,14.0529401 C16.1656051,12.6474306 16.6397962,11.6424688 17.5471656,11.0374561 C18.4548344,10.4324433 19.4585987,10.1983414 20.656051,10.3345516 L20.656051,6.11892102 C19.4585987,6.11892102 18.7374331,6.35302293 17.9276561,6.82152611 C17.1175796,7.2900293 16.4649682,7.99263439 16.1656051,8.9293414" id="Fill-3"></path>
                <path d="M24.3285172,0 C23.7037465,0 23.1621987,0.234401274 22.7038739,0.702605096 C22.2449503,1.17110828 22.0159376,1.71774522 22.0159376,2.3419172 C22.0159376,2.96698726 22.2449503,3.50853503 22.7038739,3.96685987 C23.1621987,4.42578344 23.7037465,4.65479618 24.3285172,4.65479618 C24.9727465,4.65479618 25.5238739,4.42578344 25.9827975,3.96685987 C26.4411223,3.50853503 26.6707338,2.96698726 26.6707338,2.3419172 C26.6707338,1.71774522 26.4411223,1.17110828 25.9827975,0.702605096 C25.5238739,0.234401274 24.9727465,0 24.3285172,0" id="Fill-5"></path>
                <polygon id="Fill-8" points="22.4522293 20.9928943 26.343949 20.9928943 26.343949 6.32410446 22.4522293 6.32410446"></polygon>
                <path d="M37.2326815,6.00166051 C35.2419172,6.00166051 33.8280255,6.68510637 32.9299363,8.0511 L32.9299363,6.32407452 L29.0382166,6.32407452 L29.0382166,20.9928643 L32.9299363,20.9928643 L32.9299363,13.1450618 C32.9299363,11.9353357 33.1634395,11.0276669 33.7486943,10.4226541 C34.3342484,9.8176414 35.085051,9.51498535 36.0609745,9.51498535 C36.9393057,9.51498535 37.6209554,9.77393439 38.1478344,10.290635 C38.6750127,10.8082338 38.9171975,11.5548452 38.9171975,12.5304694 L38.9171975,20.9928643 L42.8089172,20.9928643 L42.8089172,12.0619662 C42.8089172,10.1690936 42.2649745,8.68545032 41.2210955,7.61193439 C40.1766178,6.53871783 38.8327771,6.00166051 37.2326815,6.00166051" id="Fill-10"></path>
                <path d="M48.6322771,12.3112758 C48.8469204,11.4131866 49.286086,10.6692694 49.9494745,10.1519701 C50.6128631,9.63497006 51.4525764,9.38679809 52.4674172,9.38679809 C53.3259904,9.38679809 54.0923599,9.61491274 54.7656274,10.1025752 C55.4388949,10.5905369 55.8828503,11.4131866 56.097793,12.3112758 L48.6322771,12.3112758 Z M52.4674172,6.00160064 C50.2033344,6.00160064 48.3490796,6.73863248 46.9046529,8.21209745 C45.4602261,9.68586178 44.7384618,11.5254478 44.7384618,13.7308554 C44.7384618,15.9557217 45.4704045,17.8003968 46.9342898,19.2639828 C48.3978758,20.7278682 50.3398439,21.4598108 52.7601943,21.4598108 C55.570914,21.4598108 57.6981879,20.4159318 59.1423153,18.3269764 L56.097793,16.5706134 C55.355672,17.5468363 54.2629968,18.0455752 52.8188694,18.0455752 C50.5742452,18.0455752 49.1983726,17.1010847 48.6909522,15.3049064 L59.7281688,15.3049064 C59.8254618,14.7061803 59.8745573,14.2298936 59.8745573,13.7419318 C59.8745573,11.5565815 59.1761433,9.71579809 57.7811115,8.23245414 C56.3854809,6.74940955 54.614449,6.00160064 52.4674172,6.00160064 Z" id="Fill-11"></path>
                <path d="M67.3566879,2.4322949 L63.4649682,2.4322949 L63.4649682,6.32401465 L61.0700637,6.32401465 L61.0700637,9.91637134 L63.4649682,9.91637134 L63.4649682,16.1314478 C63.4649682,18.1419701 64.0463312,19.5376006 65.1102675,20.3180401 C66.1739045,21.0984796 67.955414,21.3427599 70.6496815,21.0499828 L70.6496815,17.6246707 C70.0509554,17.6638873 69.3205096,17.6686771 68.8328471,17.6390401 C68.344586,17.6100019 67.9820573,17.4782822 67.7287962,17.2438809 C67.4749363,17.009779 67.3566879,16.6394669 67.3566879,16.1314478 L67.3566879,9.91637134 L70.6496815,9.91637134 L70.6496815,6.32401465 L67.3566879,6.32401465 L67.3566879,2.4322949 Z" id="Fill-12"></path>
                <path d="M74.6669541,0 C74.0421834,0 73.5006357,0.234401274 73.0423108,0.702605096 C72.5833873,1.17110828 72.3540752,1.71774522 72.3540752,2.3419172 C72.3540752,2.96698726 72.5833873,3.50853503 73.0423108,3.96685987 C73.5006357,4.42578344 74.0421834,4.65479618 74.6669541,4.65479618 C75.3111834,4.65479618 75.8623108,4.42578344 76.320935,3.96685987 C76.7795592,3.50853503 77.0091707,2.96698726 77.0091707,2.3419172 C77.0091707,1.71774522 76.7795592,1.17110828 76.320935,0.702605096 C75.8623108,0.234401274 75.3111834,0 74.6669541,0" id="Fill-13"></path>
                <polygon id="Fill-14" points="72.7452229 20.9928943 76.6369427 20.9928943 76.6369427 6.32410446 72.7452229 6.32410446"></polygon>
                <polygon id="Fill-15" opacity="0.600000024" points="93.8882777 9.08243567 91.1461121 6.34027006 87.5914752 9.89490701 90.3336408 12.6370726"></polygon>
                <polygon id="Fill-16" points="81.6583688 6.3403 78.9162032 9.08246561 83.6602096 13.8261726 78.9162032 18.570179 81.6583688 21.3123446 86.4023752 16.5683382 91.1460822 21.3123446 93.8882478 18.570179"></polygon>
            </g>
        </g>
    </g>
</svg>
