<?xml version="1.0" encoding="UTF-8"?>
<svg width="94px" height="21px" viewBox="0 0 94 21" version="1.1" xmlns="http://www.w3.org/2000/svg" xmlns:xlink="http://www.w3.org/1999/xlink">
    <!-- Generator: Sketch 48.1 (47250) - http://www.bohemiancoding.com/sketch -->
    <title>Group</title>
    <desc>Created with Sketch.</desc>
    <defs></defs>
    <g id="02" stroke="none" stroke-width="1" fill="none" fill-rule="evenodd" transform="translate(-49.000000, -40.000000)">
        <g id="Group" transform="translate(49.000000, 40.000000)" fill="#0E0E0E">
            <path d="M6.36363636,2 L2.72727273,2 L2.72727273,5.94625875 L0,5.94625875 L0,9.58895914 L2.72727273,9.58895914 L2.72727273,15.8911344 C2.72727273,17.9298323 3.31575758,19.3450214 4.39272727,20.1363981 C5.46939394,20.9277748 7.27272727,21.1754784 10,20.8785983 L10,17.4052835 C9.09090909,17.4450496 8.58757576,17.4499066 8.09393939,17.4198543 C7.6,17.3904091 7.11484848,17.2568434 6.85818182,17.0191572 C6.60151515,16.7817746 6.36363636,16.4062729 6.36363636,15.8911344 L6.36363636,9.58895914 L10,9.58895914 L10,5.94625875 L6.36363636,5.94625875 L6.36363636,2 Z" id="Fill-1"></path>
            <path d="M15.7142857,8.83425581 L15.7142857,6.20680286 L12,6.20680286 L12,21 L15.7142857,21 L15.7142857,14.0013082 C15.7142857,12.5838784 16.1668571,11.5703935 17.0328571,10.9602496 C17.8991429,10.3501057 18.8571429,10.1140183 20,10.2513837 L20,6 C18.8571429,6 18.1688571,6.23608735 17.396,6.70856395 C16.6228571,7.18104056 16,7.88960451 15.7142857,8.83425581" id="Fill-3"></path>
            <path d="M24.4840826,0 C23.8129783,0 23.2312689,0.251784681 22.7389543,0.754710914 C22.2459965,1.25795871 22,1.84513474 22,2.51559586 C22,3.18702167 22.2459965,3.76873111 22.7389543,4.26104573 C23.2312689,4.75400347 23.8129783,5 24.4840826,5 C25.1760885,5 25.768088,4.75400347 26.2610457,4.26104573 C26.7533603,3.76873111 27,3.18702167 27,2.51559586 C27,1.84513474 26.7533603,1.25795871 26.2610457,0.754710914 C25.768088,0.251784681 25.1760885,0 24.4840826,0" id="Fill-5"></path>
            <polygon id="Fill-8" points="22 21 26 21 26 6 22 6"></polygon>
            <path d="M37.330913,6 C35.307,6 33.8695652,6.68384688 32.9565217,8.05064201 L32.9565217,6.32260319 L29,6.32260319 L29,21 L32.9565217,21 L32.9565217,13.1475927 C32.9565217,11.9371568 33.193913,11.0289554 33.788913,10.4235877 C34.3842174,9.81821994 35.1475217,9.51538631 36.1396957,9.51538631 C37.0326522,9.51538631 37.7256522,9.77448729 38.2613043,10.2914911 C38.7972609,10.8093935 39.0434783,11.5564431 39.0434783,12.5326397 L39.0434783,21 L43,21 L43,12.0638617 C43,10.1698784 42.447,8.68536454 41.3857391,7.61121872 C40.3238696,6.53737245 38.9576522,6 37.330913,6" id="Fill-10"></path>
            <path d="M48.8588042,12.1226446 C49.0715176,11.2511765 49.5067344,10.5293104 50.1641581,10.0273447 C50.8215819,9.52566958 51.653745,9.28485388 52.6594608,9.28485388 C53.5103143,9.28485388 54.2697929,9.50620679 54.9370068,9.97941399 C55.6042206,10.4529117 56.0441843,11.2511765 56.2571943,12.1226446 L48.8588042,12.1226446 Z M52.6594608,6 C50.4157354,6 48.5781531,6.71518485 47.1467139,8.14497357 C45.7152746,9.57505277 45,11.36011 45,13.5001452 C45,15.6590623 45.7253614,17.4490578 47.1760843,18.8692604 C48.6265106,20.2897535 50.5510176,21 52.9496054,21 C55.7350527,21 57.8431993,19.9870635 59.2743419,17.9600287 L56.2571943,16.2557275 C55.521746,17.2030133 54.4388956,17.6869686 53.007753,17.6869686 C50.7833112,17.6869686 49.4198097,16.7704747 48.9169518,15.0275384 L59.8549277,15.0275384 C59.9513459,14.4465596 60,13.984391 60,13.5108934 C60,11.3903209 59.3078657,9.60410171 57.9253773,8.16472684 C56.5422954,6.72564247 54.7871878,6 52.6594608,6 Z" id="Fill-11"></path>
            <path d="M67.5625,2 L63.5,2 L63.5,5.94625875 L61,5.94625875 L61,9.58895914 L63.5,9.58895914 L63.5,15.8911344 C63.5,17.9298323 64.106875,19.3450214 65.2175,20.1363981 C66.3278125,20.9277748 68.1875,21.1754784 71,20.8785983 L71,17.4052835 C70.375,17.4450496 69.6125,17.4499066 69.1034375,17.4198543 C68.59375,17.3904091 68.2153125,17.2568434 67.9509375,17.0191572 C67.6859375,16.7817746 67.5625,16.4062729 67.5625,15.8911344 L67.5625,9.58895914 L71,9.58895914 L71,5.94625875 L67.5625,5.94625875 L67.5625,2 Z" id="Fill-12"></path>
            <path d="M74.4842444,0 C73.8131833,0 73.2315113,0.251784681 72.7392283,0.754710914 C72.2463023,1.25795871 72,1.84513474 72,2.51559586 C72,3.18702167 72.2463023,3.76873111 72.7392283,4.26104573 C73.2315113,4.75400347 73.8131833,5 74.4842444,5 C75.1762058,5 75.7681672,4.75400347 76.2607717,4.26104573 C76.7533762,3.76873111 77,3.18702167 77,2.51559586 C77,1.84513474 76.7533762,1.25795871 76.2607717,0.754710914 C75.7681672,0.251784681 75.1762058,0 74.4842444,0" id="Fill-13"></path>
            <polygon id="Fill-14" points="73 21 77 21 77 6 73 6"></polygon>
            <polygon id="Fill-15" opacity="0.600000024" points="94 8.61291243 91.3870876 6 88 9.38708757 90.6129124 12"></polygon>
            <polygon id="Fill-16" points="81.7472857 6 79 8.74728571 83.7528643 13.49985 79 18.2527143 81.7472857 21 86.50015 16.2471357 91.2527143 21 94 18.2527143"></polygon>
        </g>
    </g>
</svg>